<?xml version="1.0" standalone="no"?>
<!DOCTYPE svg PUBLIC "-//W3C//DTD SVG 20010904//EN"
 "http://www.w3.org/TR/2001/REC-SVG-20010904/DTD/svg10.dtd">
<svg version="1.0" xmlns="http://www.w3.org/2000/svg"
 width="2362.000000pt" height="1442.000000pt" viewBox="0 0 2362.000000 1442.000000"
 preserveAspectRatio="xMidYMid meet">
<metadata>
Created by potrace 1.16, written by Peter Selinger 2001-2019
</metadata>
<g transform="translate(0.000000,1442.000000) scale(0.100000,-0.100000)"
fill="#4368ff" stroke="none">
<path d="M16355 9871 c-22 -14 -49 -56 -103 -165 -40 -81 -75 -155 -77 -164
-18 -85 -20 -78 30 -127 l48 -46 -20 -22 c-25 -27 -43 -61 -43 -80 0 -24 51
-67 79 -67 14 0 60 12 101 25 68 23 91 25 240 25 175 0 262 11 322 41 66 33
76 31 137 -33 112 -118 203 -312 282 -598 18 -66 37 -123 104 -305 68 -183 93
-259 89 -266 -2 -4 -22 -10 -44 -14 -30 -5 -46 -2 -67 12 -83 57 -230 114
-343 133 -228 38 -448 -72 -550 -276 -19 -38 -39 -72 -45 -76 -18 -13 -27 6
-21 48 l5 43 -56 21 c-130 49 -267 52 -378 10 -105 -41 -222 -189 -241 -307
-3 -22 -9 -45 -13 -51 -16 -27 -191 -34 -887 -39 -441 -3 -743 -1 -794 5 -63
8 -101 19 -159 49 -70 35 -79 43 -108 98 l-32 60 -1 574 c0 667 -1 672 -70
741 -64 64 -101 70 -455 70 -355 0 -391 -6 -456 -70 -28 -28 -49 -60 -54 -81
-4 -19 -11 -313 -14 -654 -7 -716 1 -665 -107 -722 -126 -67 -111 -66 -826
-71 -403 -2 -672 0 -712 6 -134 21 -234 93 -288 207 -28 60 -30 73 -38 257
-10 213 -25 321 -71 507 -77 315 -195 528 -408 742 -213 212 -388 307 -687
371 -95 20 -135 23 -319 22 -222 0 -295 -11 -465 -66 -256 -83 -512 -303 -685
-589 -99 -164 -214 -472 -316 -844 -28 -104 -64 -230 -81 -280 -40 -122 -122
-289 -154 -314 l-27 -21 -1475 0 c-1132 0 -1490 -3 -1536 -12 -51 -11 -69 -20
-106 -58 -60 -60 -66 -94 -81 -445 -14 -352 -8 -397 61 -465 54 -54 113 -70
261 -70 230 0 581 -41 735 -86 198 -57 329 -128 359 -195 l19 -41 -28 -54
c-19 -35 -49 -71 -85 -99 -123 -99 -392 -206 -622 -247 -121 -22 -141 -23
-819 -23 -683 0 -696 1 -772 22 -257 73 -451 204 -573 388 -173 259 -242 559
-215 937 27 374 121 722 317 1173 92 210 104 256 89 327 -23 100 -54 123 -365
276 -306 150 -353 165 -433 148 -80 -19 -129 -68 -187 -189 -224 -467 -386
-1004 -452 -1493 -29 -211 -31 -570 -5 -749 67 -469 211 -825 453 -1125 73
-90 274 -288 358 -352 317 -241 686 -380 1112 -419 159 -14 1371 -6 1493 10
696 92 1149 287 1474 632 119 127 218 284 259 414 49 153 61 227 61 395 1 155
-7 223 -40 332 -4 15 30 17 438 21 l443 4 130 32 c151 36 273 93 381 175 l70
53 140 -74 c451 -242 779 -343 1113 -343 160 0 339 32 467 84 100 41 228 123
312 201 l63 58 87 -40 c48 -23 105 -48 127 -56 71 -26 312 -77 413 -87 129
-13 1294 -12 1447 0 65 6 186 24 268 41 213 43 356 97 494 185 l53 34 62 -44
c129 -89 248 -137 450 -181 185 -39 302 -45 993 -45 904 0 1094 15 1540 119
66 16 143 32 170 36 28 4 55 10 60 15 6 4 62 22 125 40 63 18 174 52 247 76
73 23 167 48 210 54 213 32 417 97 628 201 172 84 282 155 493 318 90 69 214
160 276 201 152 102 168 116 205 182 37 65 50 148 33 198 -9 25 -78 137 -114
185 -4 6 -45 61 -91 122 -127 169 -261 320 -457 513 -193 190 -253 245 -405
375 -77 66 -188 168 -247 226 -177 177 -252 229 -393 277 -97 33 -221 79 -244
91 -42 23 -248 93 -311 107 -86 19 -119 18 -155 -5z m-6983 -1022 c25 -4 59
-15 75 -23 15 -9 35 -20 43 -25 8 -4 24 -13 35 -20 11 -6 28 -14 38 -17 9 -4
17 -9 17 -13 0 -3 27 -34 60 -69 33 -34 60 -69 60 -77 0 -7 6 -18 13 -22 14
-9 89 -158 112 -223 103 -290 97 -537 -18 -721 -98 -158 -295 -258 -509 -259
-106 0 -191 20 -283 67 -216 111 -318 311 -295 576 8 91 43 252 69 312 5 11
17 40 27 65 34 83 95 184 143 240 26 30 50 63 54 73 3 9 13 17 21 17 7 0 16 6
19 14 9 22 118 84 172 97 28 7 54 17 60 21 5 5 16 6 25 2 8 -4 36 -10 62 -15z"/>
<path d="M20065 9207 c-38 -9 -61 -22 -95 -57 -41 -40 -47 -52 -58 -115 -9
-52 -13 -359 -16 -1180 -2 -981 -5 -1123 -20 -1225 -22 -150 -54 -255 -118
-382 -91 -181 -233 -296 -461 -373 -136 -45 -244 -57 -592 -61 -181 -2 -350
-9 -390 -16 -63 -11 -75 -17 -115 -58 -64 -64 -70 -101 -70 -460 0 -360 6
-396 70 -460 37 -38 55 -47 106 -58 73 -15 599 -17 671 -2 26 5 109 16 184 25
363 42 681 152 944 326 157 105 374 322 478 479 214 324 329 716 357 1213 15
268 13 2167 -2 2241 -11 51 -20 69 -58 106 -37 38 -55 47 -106 58 -76 15 -636
14 -709 -1z"/>
<path d="M11364 5960 c-18 -4 -40 -11 -50 -15 -11 -4 -24 -9 -31 -11 -13 -2
-70 -43 -123 -88 -38 -32 -160 -175 -160 -187 0 -5 -13 -31 -30 -59 -16 -27
-27 -50 -25 -50 3 0 -1 -10 -9 -22 -37 -60 -92 -277 -102 -399 -2 -33 -5 -63
-6 -67 -1 -4 2 -34 6 -67 24 -187 125 -334 286 -415 102 -51 174 -64 319 -57
102 4 128 9 197 37 43 18 95 44 114 58 45 32 130 114 130 125 0 4 11 23 25 41
34 44 54 105 70 211 15 98 12 171 -10 280 -25 115 -31 138 -49 173 -10 19 -15
36 -12 39 3 3 -1 18 -8 32 -8 14 -24 46 -35 71 -12 25 -30 59 -41 75 -11 17
-24 41 -30 53 -13 30 -131 152 -146 152 -7 0 -14 7 -18 15 -3 8 -12 15 -21 15
-8 0 -32 11 -53 24 -20 14 -64 29 -96 35 -33 6 -60 11 -60 10 -1 -1 -15 -4
-32 -9z"/>
<path d="M12742 5959 c-46 -10 -122 -39 -122 -47 0 -4 -12 -13 -27 -20 -28
-12 -93 -67 -93 -77 0 -3 -26 -36 -57 -74 -57 -68 -136 -211 -167 -304 -21
-63 -57 -221 -62 -272 -2 -22 -6 -56 -8 -75 -13 -97 39 -263 111 -360 54 -73
75 -91 160 -139 90 -51 171 -71 289 -71 122 0 192 14 288 59 96 45 153 92 205
170 75 112 102 206 102 355 0 108 -33 282 -65 344 -9 17 -16 37 -16 45 0 20
-79 174 -119 232 -41 60 -121 144 -137 145 -7 0 -14 7 -18 15 -3 8 -11 15 -17
15 -6 0 -39 13 -73 29 -66 32 -122 42 -174 30z"/>
<path d="M16642 5959 c-46 -10 -122 -39 -122 -47 0 -4 -12 -13 -27 -20 -29
-13 -93 -67 -93 -78 0 -3 -22 -31 -49 -62 -118 -135 -213 -372 -237 -587 -3
-27 -7 -63 -9 -80 -5 -40 12 -147 33 -210 20 -59 89 -169 135 -212 48 -47 169
-111 239 -128 74 -17 220 -19 304 -4 76 14 207 76 262 124 46 40 106 123 140
196 23 48 43 168 43 259 0 105 -34 277 -65 338 -9 17 -16 37 -16 44 0 17 -76
169 -113 226 -34 52 -128 152 -144 152 -6 0 -13 7 -17 15 -3 8 -11 15 -17 15
-6 0 -39 13 -73 29 -66 32 -122 42 -174 30z"/>
</g>
</svg>
